<mxfile host="65bd71144e">
    <diagram id="ma74hijiuDZRGCtGPLLQ" name="Page-1">
        <mxGraphModel dx="726" dy="510" grid="1" gridSize="10" guides="1" tooltips="1" connect="1" arrows="0" fold="1" page="0" pageScale="1" pageWidth="827" pageHeight="1169" background="#2a9d8f" math="0" shadow="0">
            <root>
                <mxCell id="0"/>
                <mxCell id="1" parent="0"/>
                <mxCell id="3" value="test" style="edgeStyle=none;html=1;exitX=1;exitY=0.5;exitDx=0;exitDy=0;entryX=0;entryY=0.5;entryDx=0;entryDy=0;fontColor=#f4a261;strokeColor=#E9C46A;labelBackgroundColor=none;" parent="1" source="iaSEOfCUC_CEGpIJ1BrZ-1" target="2" edge="1">
                    <mxGeometry y="10" relative="1" as="geometry">
                        <mxPoint as="offset"/>
                    </mxGeometry>
                </mxCell>
                <mxCell id="iaSEOfCUC_CEGpIJ1BrZ-1" value="Painic" style="ellipse;whiteSpace=wrap;html=1;aspect=fixed;fillColor=#264653;fontColor=#e76f51;strokeColor=#e9c46a;" parent="1" vertex="1">
                    <mxGeometry x="300" y="350" width="80" height="80" as="geometry"/>
                </mxCell>
                <mxCell id="2" value="Painic" style="ellipse;whiteSpace=wrap;html=1;aspect=fixed;fillColor=#264653;fontColor=#e76f51;strokeColor=#e9c46a;" parent="1" vertex="1">
                    <mxGeometry x="600" y="350" width="80" height="80" as="geometry"/>
                </mxCell>
                <mxCell id="9" style="edgeStyle=none;html=1;exitX=0.5;exitY=1;exitDx=0;exitDy=0;labelBackgroundColor=none;strokeColor=#e9c46a;fontColor=#f4a261;" parent="1" source="5" target="7" edge="1">
                    <mxGeometry relative="1" as="geometry"/>
                </mxCell>
                <mxCell id="10" style="edgeStyle=none;html=1;exitX=0.5;exitY=1;exitDx=0;exitDy=0;labelBackgroundColor=none;strokeColor=#e9c46a;fontColor=#f4a261;" parent="1" source="5" target="6" edge="1">
                    <mxGeometry relative="1" as="geometry"/>
                </mxCell>
                <mxCell id="5" value="CASM Editor" style="rounded=1;whiteSpace=wrap;html=1;strokeColor=#e9c46a;fontColor=#f4a261;fillColor=#264653;" parent="1" vertex="1">
                    <mxGeometry x="590" y="120" width="100" height="40" as="geometry"/>
                </mxCell>
                <mxCell id="6" value="Agent Ticker&lt;span style=&quot;color: rgba(0, 0, 0, 0); font-family: monospace; font-size: 0px; text-align: start;&quot;&gt;%3CmxGraphModel%3E%3Croot%3E%3CmxCell%20id%3D%220%22%2F%3E%3CmxCell%20id%3D%221%22%20parent%3D%220%22%2F%3E%3CmxCell%20id%3D%222%22%20value%3D%22CASM%20Editor%22%20style%3D%22rounded%3D1%3BwhiteSpace%3Dwrap%3Bhtml%3D1%3BstrokeColor%3D%23e9c46a%3BfontColor%3D%23f4a261%3BfillColor%3D%23264653%3B%22%20vertex%3D%221%22%20parent%3D%221%22%3E%3CmxGeometry%20x%3D%22620%22%20y%3D%22120%22%20width%3D%22100%22%20height%3D%2240%22%20as%3D%22geometry%22%2F%3E%3C%2FmxCell%3E%3C%2Froot%3E%3C%2FmxGraphModel%3E&lt;/span&gt;" style="rounded=1;whiteSpace=wrap;html=1;strokeColor=#e9c46a;fontColor=#f4a261;fillColor=#264653;" parent="1" vertex="1">
                    <mxGeometry x="700" y="200" width="100" height="40" as="geometry"/>
                </mxCell>
                <mxCell id="7" value="Layer Ticker" style="rounded=1;whiteSpace=wrap;html=1;strokeColor=#e9c46a;fontColor=#f4a261;fillColor=#264653;" parent="1" vertex="1">
                    <mxGeometry x="480" y="200" width="100" height="40" as="geometry"/>
                </mxCell>
                <mxCell id="11" value="Enviroment" style="swimlane;whiteSpace=wrap;html=1;strokeColor=#E9C46A;fillColor=#264653;fontColor=#E76F51;labelBorderColor=none;" parent="1" vertex="1">
                    <mxGeometry x="1160" y="300" width="360" height="420" as="geometry"/>
                </mxCell>
                <mxCell id="41" style="edgeStyle=elbowEdgeStyle;html=1;exitX=0.5;exitY=1;exitDx=0;exitDy=0;entryX=0;entryY=0;entryDx=0;entryDy=0;strokeColor=#E9C46A;fontColor=#F4A261;" parent="11" source="13" target="48" edge="1">
                    <mxGeometry relative="1" as="geometry">
                        <mxPoint x="157.14285714285734" y="162.8571428571429" as="targetPoint"/>
                        <Array as="points">
                            <mxPoint x="80" y="130"/>
                        </Array>
                    </mxGeometry>
                </mxCell>
                <mxCell id="42" style="edgeStyle=elbowEdgeStyle;html=1;exitX=0.5;exitY=1;exitDx=0;exitDy=0;entryX=0;entryY=0;entryDx=0;entryDy=0;strokeColor=#E9C46A;fontColor=#F4A261;" parent="11" source="13" target="27" edge="1">
                    <mxGeometry relative="1" as="geometry">
                        <Array as="points">
                            <mxPoint x="80" y="150"/>
                        </Array>
                    </mxGeometry>
                </mxCell>
                <mxCell id="43" value="advance layers" style="edgeStyle=elbowEdgeStyle;html=1;exitX=0.5;exitY=1;exitDx=0;exitDy=0;entryX=0;entryY=0;entryDx=0;entryDy=0;strokeColor=#E9C46A;fontColor=#F4A261;labelBackgroundColor=none;" parent="11" source="13" target="26" edge="1">
                    <mxGeometry x="-0.7778" y="40" relative="1" as="geometry">
                        <Array as="points">
                            <mxPoint x="80" y="160"/>
                        </Array>
                        <mxPoint as="offset"/>
                    </mxGeometry>
                </mxCell>
                <mxCell id="13" value="LayerTicker" style="rounded=1;whiteSpace=wrap;html=1;strokeColor=#e9c46a;fontColor=#E76F51;fillColor=#264653;" parent="11" vertex="1">
                    <mxGeometry x="30" y="60" width="100" height="40" as="geometry"/>
                </mxCell>
                <mxCell id="26" value="" style="shape=trapezoid;perimeter=trapezoidPerimeter;whiteSpace=wrap;html=1;fixedSize=1;strokeColor=#E9C46A;fontColor=#F4A261;fillColor=#264653;" parent="11" vertex="1">
                    <mxGeometry x="90" y="320" width="120" height="20" as="geometry"/>
                </mxCell>
                <mxCell id="27" value="" style="shape=trapezoid;perimeter=trapezoidPerimeter;whiteSpace=wrap;html=1;fixedSize=1;strokeColor=#E9C46A;fontColor=#F4A261;fillColor=#264653;" parent="11" vertex="1">
                    <mxGeometry x="90" y="240" width="120" height="20" as="geometry"/>
                </mxCell>
                <mxCell id="22" value="" style="shape=trapezoid;perimeter=trapezoidPerimeter;whiteSpace=wrap;html=1;fixedSize=1;strokeColor=#E9C46A;fontColor=#F4A261;fillColor=#264653;" parent="11" vertex="1">
                    <mxGeometry x="190" y="350" width="120" height="20" as="geometry"/>
                </mxCell>
                <mxCell id="23" value="" style="shape=trapezoid;perimeter=trapezoidPerimeter;whiteSpace=wrap;html=1;fixedSize=1;strokeColor=#E9C46A;fontColor=#F4A261;fillColor=#264653;" parent="11" vertex="1">
                    <mxGeometry x="190" y="270" width="120" height="20" as="geometry"/>
                </mxCell>
                <mxCell id="24" value="NavGraphs" style="shape=trapezoid;perimeter=trapezoidPerimeter;whiteSpace=wrap;html=1;fixedSize=1;strokeColor=#E9C46A;fontColor=#E76F51;fillColor=#264653;" parent="11" vertex="1">
                    <mxGeometry x="190" y="190" width="120" height="20" as="geometry"/>
                </mxCell>
                <mxCell id="52" value="update nav &lt;br&gt;graph" style="edgeStyle=elbowEdgeStyle;html=1;exitX=0.75;exitY=1;exitDx=0;exitDy=0;entryX=0;entryY=0;entryDx=0;entryDy=0;labelBackgroundColor=none;strokeColor=#E9C46A;fontColor=#F4A261;" parent="11" source="48" target="24" edge="1">
                    <mxGeometry x="-0.3571" y="-31" relative="1" as="geometry">
                        <Array as="points">
                            <mxPoint x="180" y="190"/>
                        </Array>
                        <mxPoint x="-30" y="-24" as="offset"/>
                    </mxGeometry>
                </mxCell>
                <mxCell id="48" value="Layers" style="shape=trapezoid;perimeter=trapezoidPerimeter;whiteSpace=wrap;html=1;fixedSize=1;strokeColor=#E9C46A;fontColor=#E76F51;fillColor=#264653;" parent="11" vertex="1">
                    <mxGeometry x="90" y="160" width="120" height="20" as="geometry"/>
                </mxCell>
                <mxCell id="53" value="update nav &lt;br&gt;graph" style="edgeStyle=elbowEdgeStyle;html=1;exitX=0.75;exitY=1;exitDx=0;exitDy=0;entryX=0;entryY=0;entryDx=0;entryDy=0;labelBackgroundColor=none;strokeColor=#E9C46A;fontColor=#F4A261;" parent="11" source="27" target="23" edge="1">
                    <mxGeometry x="-0.3571" y="-31" relative="1" as="geometry">
                        <mxPoint x="190" y="190" as="sourcePoint"/>
                        <mxPoint x="207.14285714285734" y="202.8571428571429" as="targetPoint"/>
                        <Array as="points">
                            <mxPoint x="180" y="270"/>
                        </Array>
                        <mxPoint x="-30" y="-24" as="offset"/>
                    </mxGeometry>
                </mxCell>
                <mxCell id="54" value="update nav &lt;br&gt;graph" style="edgeStyle=elbowEdgeStyle;html=1;exitX=0.75;exitY=1;exitDx=0;exitDy=0;entryX=0;entryY=0;entryDx=0;entryDy=0;labelBackgroundColor=none;strokeColor=#E9C46A;fontColor=#F4A261;" parent="11" source="26" target="22" edge="1">
                    <mxGeometry x="-0.3571" y="-31" relative="1" as="geometry">
                        <mxPoint x="190" y="270" as="sourcePoint"/>
                        <mxPoint x="207.14285714285688" y="282.8571428571428" as="targetPoint"/>
                        <Array as="points">
                            <mxPoint x="180" y="350"/>
                        </Array>
                        <mxPoint x="-30" y="-24" as="offset"/>
                    </mxGeometry>
                </mxCell>
            </root>
        </mxGraphModel>
    </diagram>
</mxfile>